<?xml version="1.0" encoding="UTF-8"?>
<svg width="25px" height="25px" viewBox="0 0 25 25" version="1.1" xmlns="http://www.w3.org/2000/svg" xmlns:xlink="http://www.w3.org/1999/xlink">
    <!-- Generator: sketchtool 50.2 (55047) - http://www.bohemiancoding.com/sketch -->
    <title>DC941C1D-DF1A-419C-B20C-5A56BDB54451</title>
    <desc>Created with sketchtool.</desc>
    <defs></defs>
    <g id="Page-1" stroke="none" stroke-width="1" fill="none" fill-rule="evenodd">
        <g id="Test" transform="translate(-1142.000000, -630.000000)">
            <g id="Files" transform="translate(1010.000000, 591.000000)">
                <g id="ic_clown" transform="translate(132.000000, 39.000000)">
                    <path d="M23.6071429,5.11904762 C23.9327097,4.66874234 24.1077026,4.12709783 24.1071429,3.57142857 C24.1087279,2.86054253 23.8270311,2.17831608 23.3243575,1.6756425 C22.8216839,1.17296891 22.1394575,0.891272107 21.4285714,0.892857143 C20.8729022,0.892297426 20.3312577,1.06729027 19.8809524,1.39285714 C19.6772892,0.648805849 18.9388007,0.183753931 18.1797909,0.321576576 C17.4207811,0.45939922 16.8929364,1.15439465 16.9638628,1.92254857 C17.0347891,2.6907025 17.6809674,3.27729626 18.452381,3.27380952 C18.5646748,3.27205643 18.6764441,3.25808526 18.7857143,3.23214286 C18.7650071,3.34413764 18.7530661,3.45757684 18.75,3.57142857 C18.748415,4.28231461 19.0301118,4.96454106 19.5327854,5.46721465 C20.0354589,5.96988824 20.7176854,6.25158504 21.4285714,6.25 C21.5424232,6.24693386 21.6558624,6.23499289 21.7678571,6.21428571 C21.7419147,6.32355586 21.7279436,6.43532524 21.7261905,6.54761905 C21.7227037,7.31903258 22.3092975,7.96521086 23.0774514,8.03613721 C23.8456053,8.10706357 24.5406008,7.57921894 24.6784234,6.82020911 C24.8162461,6.06119929 24.3511942,5.32271075 23.6071429,5.11904762 Z" id="_Path_" stroke="#45413C" stroke-width="0.595238095" fill="#00B8F0" fill-rule="nonzero" stroke-linecap="round" stroke-linejoin="round"></path>
                    <path d="M1.39285714,5.11904762 C1.06729027,4.66874234 0.892297426,4.12709783 0.892857143,3.57142857 C0.891272107,2.86054253 1.17296891,2.17831608 1.6756425,1.6756425 C2.17831608,1.17296891 2.86054253,0.891272107 3.57142857,0.892857143 C4.12709783,0.892297426 4.66874234,1.06729027 5.11904762,1.39285714 C5.32271075,0.648805849 6.06119929,0.183753931 6.82020911,0.321576576 C7.57921894,0.45939922 8.10706357,1.15439465 8.03613721,1.92254857 C7.96521086,2.6907025 7.31903258,3.27729626 6.54761905,3.27380952 C6.43532524,3.27205643 6.32355586,3.25808526 6.21428571,3.23214286 C6.23499289,3.34413764 6.24693386,3.45757684 6.25,3.57142857 C6.25158504,4.28231461 5.96988824,4.96454106 5.46721465,5.46721465 C4.96454106,5.96988824 4.28231461,6.25158504 3.57142857,6.25 C3.45757684,6.24693386 3.34413764,6.23499289 3.23214286,6.21428571 C3.25808526,6.32355586 3.27205643,6.43532524 3.27380952,6.54761905 C3.27729626,7.31903258 2.6907025,7.96521086 1.92254857,8.03613721 C1.15439465,8.10706357 0.45939922,7.57921894 0.321576576,6.82020911 C0.183753931,6.06119929 0.648805849,5.32271075 1.39285714,5.11904762 Z" id="_Path_2" stroke="#45413C" stroke-width="0.595238095" fill="#00B8F0" fill-rule="nonzero" stroke-linecap="round" stroke-linejoin="round"></path>
                    <circle id="_Ellipse_2" fill="#FFFCE5" fill-rule="nonzero" cx="12.5" cy="12.797619" r="11.9047619"></circle>
                    <path d="M12.5,0.892857143 C5.92518155,0.892857143 0.595238095,6.2228006 0.595238095,12.797619 C0.595238095,19.3724375 5.92518155,24.702381 12.5,24.702381 C19.0748185,24.702381 24.4047619,19.3724375 24.4047619,12.797619 C24.4047619,9.64027988 23.1505138,6.61225711 20.9179379,4.37968118 C18.6853619,2.14710524 15.6573392,0.892857143 12.5,0.892857143 Z M12.5,22.9166667 C6.50047816,22.9166667 1.63690476,18.0530933 1.63690476,12.0535714 C1.63690476,6.05404959 6.50047816,1.19047619 12.5,1.19047619 C18.4995218,1.19047619 23.3630952,6.05404959 23.3630952,12.0535714 C23.3630952,14.9346434 22.2185938,17.6977142 20.1813683,19.7349397 C18.1441428,21.7721653 15.381072,22.9166667 12.5,22.9166667 Z" id="_Compound_Path_" fill="#FFFACF" fill-rule="nonzero"></path>
                    <ellipse id="_Ellipse_3" fill="#FFFFFF" fill-rule="nonzero" cx="12.5" cy="3.27380952" rx="3.57142857" ry="1"></ellipse>
                    <circle id="_Ellipse_4" stroke="#45413C" stroke-width="0.595238095" stroke-linecap="round" stroke-linejoin="round" cx="12.5" cy="12.797619" r="11.9047619"></circle>
                    <path d="M21.4285714,15.7738095 C21.4285714,16.2678571 20.7619048,16.6666667 19.9404762,16.6666667 C19.1190476,16.6666667 18.452381,16.2678571 18.452381,15.7738095 C18.452381,15.2797619 19.1190476,14.8809524 19.9404762,14.8809524 C20.7619048,14.8809524 21.4285714,15.2797619 21.4285714,15.7738095 Z" id="_Path_3" fill="#FF87AF" fill-rule="nonzero"></path>
                    <path d="M3.57142857,15.7738095 C3.57142857,16.2678571 4.23809524,16.6666667 5.05952381,16.6666667 C5.88095238,16.6666667 6.54761905,16.2678571 6.54761905,15.7738095 C6.54761905,15.2797619 5.88095238,14.8809524 5.05952381,14.8809524 C4.23809524,14.8809524 3.57142857,15.2797619 3.57142857,15.7738095 Z" id="_Path_4" fill="#FF87AF" fill-rule="nonzero"></path>
                    <ellipse id="_Path_5" fill="#FF6242" fill-rule="nonzero" cx="12.5" cy="14.8809524" rx="2.67857143" ry="2.08333333"></ellipse>
                    <path d="M12.5,13.9880952 C13.5733635,13.9239219 14.5802527,14.5106871 15.0535714,15.4761905 C15.1308827,15.2869669 15.1732347,15.0852906 15.1785714,14.8809524 C15.1785714,13.7321429 13.9880952,12.797619 12.5,12.797619 C11.0119048,12.797619 9.82142857,13.7321429 9.82142857,14.8809524 C9.82676525,15.0852906 9.86911728,15.2869669 9.94642857,15.4761905 C10.4197473,14.5106871 11.4266365,13.9239219 12.5,13.9880952 Z" id="_Path_6" fill="#FF866E" fill-rule="nonzero"></path>
                    <ellipse id="_Path_7" stroke="#45413C" stroke-width="0.595238095" stroke-linecap="round" stroke-linejoin="round" cx="12.5" cy="14.8809524" rx="2.67857143" ry="2.08333333"></ellipse>
                    <path d="M12.5,22.0238095 C10.4451997,22.0857516 8.47380755,21.2095773 7.14285714,19.6428571 C6.82387001,19.217541 6.75601722,18.654355 6.96485827,18.1654459 C7.17369932,17.6765369 7.62750628,17.3361817 8.15533446,17.2725888 C8.68316264,17.2089959 9.20482239,17.4318267 9.52380952,17.8571429 C10.2934541,18.6709754 11.3814073,19.1061567 12.5,19.047619 C13.6194053,19.1110976 14.7093649,18.6751138 15.4761905,17.8571429 C15.9777109,17.2162571 16.8976557,17.0897318 17.5535714,17.5714286 C17.8694537,17.8051711 18.0791037,18.1552127 18.136084,18.5440191 C18.1930642,18.9328255 18.0926715,19.3283044 17.8571429,19.6428571 C16.5261925,21.2095773 14.5548003,22.0857516 12.5,22.0238095 Z" id="_Path_8" fill="#FF6242" fill-rule="nonzero"></path>
                    <path d="M17.5535714,17.5714286 C16.8976557,17.0897318 15.9777109,17.2162571 15.4761905,17.8571429 C14.7093649,18.6751138 13.6194053,19.1110976 12.5,19.047619 C11.3814073,19.1061567 10.2934541,18.6709754 9.52380952,17.8571429 C9.15645461,17.3570144 8.51642761,17.1386808 7.92000848,17.310035 C7.32358935,17.4813893 6.8970574,18.0061508 6.85119048,18.625 C7.19761524,18.3304194 7.65096889,18.1932223 8.10260121,18.2462891 C8.55423353,18.2993559 8.96343717,18.5379035 9.23214286,18.9047619 C10.0729607,19.8072576 11.267823,20.2947788 12.5,20.2380952 C13.734552,20.3062057 14.9364519,19.8271876 15.7857143,18.9285714 C16.0533147,18.5601917 16.4627223,18.3204453 16.9149284,18.2673111 C17.3671345,18.2141769 17.8209645,18.3524929 18.1666667,18.6488095 C18.1295068,18.2173617 17.9055151,17.8237453 17.5535714,17.5714286 Z" id="Shape" fill="#FF866E" fill-rule="nonzero"></path>
                    <path d="M12.5,22.0238095 C10.4451997,22.0857516 8.47380755,21.2095773 7.14285714,19.6428571 C6.82387001,19.217541 6.75601722,18.654355 6.96485827,18.1654459 C7.17369932,17.6765369 7.62750628,17.3361817 8.15533446,17.2725888 C8.68316264,17.2089959 9.20482239,17.4318267 9.52380952,17.8571429 C10.2934541,18.6709754 11.3814073,19.1061567 12.5,19.047619 C13.6194053,19.1110976 14.7093649,18.6751138 15.4761905,17.8571429 C15.9777109,17.2162571 16.8976557,17.0897318 17.5535714,17.5714286 C17.8694537,17.8051711 18.0791037,18.1552127 18.136084,18.5440191 C18.1930642,18.9328255 18.0926715,19.3283044 17.8571429,19.6428571 C16.5261925,21.2095773 14.5548003,22.0857516 12.5,22.0238095 Z" id="_Path_9" stroke="#45413C" stroke-width="0.595238095" stroke-linecap="round" stroke-linejoin="round"></path>
                    <path d="M8.63095238,19.047619 C8.63095238,19.047619 9.75,20.5357143 12.5,20.5357143 C15.25,20.5357143 16.3690476,19.047619 16.3690476,19.047619" id="_Path_10" stroke="#45413C" stroke-width="0.595238095" stroke-linecap="round" stroke-linejoin="round"></path>
                    <ellipse id="_Path_11" stroke="#45413C" stroke-width="0.595238095" fill="#4ACFFF" fill-rule="nonzero" stroke-linecap="round" stroke-linejoin="round" cx="18.1547619" cy="11.6071429" rx="2.08333333" ry="2.38095238"></ellipse>
                    <ellipse id="_Path_12" stroke="#45413C" stroke-width="0.595238095" fill="#4ACFFF" fill-rule="nonzero" stroke-linecap="round" stroke-linejoin="round" cx="6.8452381" cy="11.6071429" rx="2.08333333" ry="2.38095238"></ellipse>
                    <path d="M7.44047619,11.6071429 C7.44047619,11.9358838 7.17397902,12.202381 6.8452381,12.202381 C6.51649717,12.202381 6.25,11.9358838 6.25,11.6071429 C6.25,11.2784019 6.51649717,11.0119048 6.8452381,11.0119048 C7.17397902,11.0119048 7.44047619,11.2784019 7.44047619,11.6071429 Z" id="_Path_13" stroke="#45413C" stroke-width="0.595238095" fill="#45413C" fill-rule="nonzero" stroke-linecap="round" stroke-linejoin="round"></path>
                    <path d="M17.5595238,11.6071429 C17.5595238,11.9358838 17.826021,12.202381 18.1547619,12.202381 C18.4835028,12.202381 18.75,11.9358838 18.75,11.6071429 C18.75,11.2784019 18.4835028,11.0119048 18.1547619,11.0119048 C17.826021,11.0119048 17.5595238,11.2784019 17.5595238,11.6071429 Z" id="_Path_14" stroke="#45413C" stroke-width="0.595238095" fill="#45413C" fill-rule="nonzero" stroke-linecap="round" stroke-linejoin="round"></path>
                    <path d="M16.0714286,7.73809524 C16.4174044,6.87913598 17.2300245,6.29869306 18.1547619,6.25 C19.0794993,6.29869306 19.8921194,6.87913598 20.2380952,7.73809524" id="_Path_15" stroke="#45413C" stroke-width="0.595238095" stroke-linecap="round" stroke-linejoin="round"></path>
                    <path d="M4.76190476,7.73809524 C5.1078806,6.87913598 5.92050068,6.29869306 6.8452381,6.25 C7.76997551,6.29869306 8.58259559,6.87913598 8.92857143,7.73809524" id="_Path_16" stroke="#45413C" stroke-width="0.595238095" stroke-linecap="round" stroke-linejoin="round"></path>
                </g>
            </g>
        </g>
    </g>
</svg>