<?xml version="1.0" encoding="UTF-8"?>
<svg width="24px" height="30px" viewBox="0 0 24 30" version="1.1" xmlns="http://www.w3.org/2000/svg" xmlns:xlink="http://www.w3.org/1999/xlink">
    <!-- Generator: sketchtool 50.2 (55047) - http://www.bohemiancoding.com/sketch -->
    <title>9ABC3D97-47F6-4C36-9332-E71F9F276954</title>
    <desc>Created with sketchtool.</desc>
    <defs></defs>
    <g id="Page-1" stroke="none" stroke-width="1" fill="none" fill-rule="evenodd">
        <g id="Test" transform="translate(-1103.000000, -625.000000)">
            <g id="Files" transform="translate(1010.000000, 591.000000)">
                <g id="ic_gandalf" transform="translate(93.000000, 34.000000)">
                    <g id="_Group_" transform="translate(0.000000, 2.790698)" fill-rule="nonzero">
                        <g id="_Group_2">
                            <path d="M12,-2.68519057e-16 C9.26735871,-6.34399123e-07 6.64674234,1.07339165 4.71513524,2.98384674 C2.78352813,4.89430183 1.69930352,7.48518076 1.70117647,10.1860465 L1.70117405,15.5162791 L22.298826,15.5162791 L22.2988235,10.1860465 C22.3006965,7.48518076 21.2164719,4.89430183 19.2848648,2.98384674 C17.3532577,1.07339165 14.7326413,-6.34399121e-07 12,-2.68519057e-16 Z" id="Shape" stroke="#45413C" stroke-width="0.689338235" fill="#FFE500" stroke-linecap="round" stroke-linejoin="round"></path>
                            <path d="M23.4,14.7418605 C23.2962769,13.9594584 22.7151687,13.3212905 21.9388235,13.1372093 L21.3247059,12.9697674 C20.3944792,12.7188712 19.7531906,11.8785422 19.7647059,10.9255814 L19.7647059,8.78372093 C19.7638415,7.90250478 19.1599504,7.13346189 18.2964706,6.91395349 C16.2938101,7.69746868 14.15343,8.07930074 12,8.0372093 C9.85130448,8.07744662 7.7159069,7.69564736 5.71764706,6.91395349 C4.84856285,7.12807525 4.23780095,7.89846041 4.23529412,8.78372093 L4.23529412,10.9255814 C4.24512483,11.8825311 3.59701094,12.724187 2.66117647,12.9697674 L2.04705882,13.1372093 C1.27071363,13.3212905 0.689605441,13.9594584 0.585882353,14.7418605 C0.540411954,15.2655578 0.719225164,15.784101 1.07882252,16.1713453 C1.43841987,16.5585896 1.9458411,16.7790406 2.47764706,16.7790698 L2.59764706,16.7790698 C3.29723633,21.3700744 7.2884785,24.7652633 11.9858824,24.7652633 C16.6832862,24.7652633 20.6745284,21.3700744 21.3741176,16.7790698 L21.4941176,16.7790698 C22.0283761,16.7829678 22.5395762,16.5642256 22.9022976,16.1765105 C23.2650191,15.7887953 23.4456959,15.267986 23.4,14.7418605 Z" id="Shape" stroke="#45413C" stroke-width="0.689338235" fill="#FFE500" stroke-linecap="round" stroke-linejoin="round"></path>
                            <path d="M6.30352941,14.5186047 C6.30354185,14.8437473 6.50209444,15.136736 6.80629763,15.2605009 C7.11050081,15.3842657 7.46020211,15.3143337 7.69179952,15.0834214 C7.92339693,14.852509 7.99109488,14.5062764 7.863222,14.2067029 C7.73534912,13.9071293 7.43719072,13.7134517 7.10823529,13.7162791 C6.66266911,13.7201087 6.30351257,14.0782028 6.30352941,14.5186047 Z" id="_Path_" stroke="#45413C" stroke-width="0.689338235" fill="#45413C" stroke-linecap="round" stroke-linejoin="round"></path>
                            <path d="M17.6964706,14.5186047 C17.6964582,14.8437473 17.4979056,15.136736 17.1937024,15.2605009 C16.8894992,15.3842657 16.5397979,15.3143337 16.3082005,15.0834214 C16.0766031,14.852509 16.0089051,14.5062764 16.136778,14.2067029 C16.2646509,13.9071293 16.5628093,13.7134517 16.8917647,13.7162791 C17.3373309,13.7201087 17.6964874,14.0782028 17.6964706,14.5186047 Z" id="_Path_2" stroke="#45413C" stroke-width="0.689338235" fill="#45413C" stroke-linecap="round" stroke-linejoin="round"></path>
                            <ellipse id="_Ellipse_2" fill="#FFAA54" cx="5.77411765" cy="17.9232558" rx="1.05176471" ry="1"></ellipse>
                            <ellipse id="_Ellipse_3" fill="#FFAA54" cx="18.2258824" cy="17.9232558" rx="1.05176471" ry="1"></ellipse>
                        </g>
                    </g>
                    <path d="M20.0117647,14.2465116 L20.0117647,19.0883721 C20.0191118,21.7316217 18.6962011,24.2054647 16.4823529,25.6883721 L16.4823529,24.8023256 C16.4823529,22.9953488 14.4847059,21.5372093 12.0282353,21.5372093 C9.57176471,21.5372093 7.54588235,23.0232558 7.54588235,24.8023256 L7.54588235,25.6883721 C5.33203419,24.2054647 4.00912345,21.7316217 4.01647059,19.0883721 L4.01647059,14.2465116 L2.66117647,15.7604651 L2.66117647,19.2069767 C2.66117647,25.6744186 8.38588235,29.6023256 12.0282353,29.5744186 C15.6705882,29.5465116 21.3952941,25.6883721 21.3952941,19.2069767 L21.3952941,15.7604651 L20.0117647,14.2465116 Z" id="Shape" stroke="#45413C" stroke-width="0.689338235" fill="#F0F0F0" fill-rule="nonzero" stroke-linecap="round" stroke-linejoin="round"></path>
                    <path d="M10.0164706,24.5023256 C10.0164706,24.5023256 10.5035294,25.1511628 12,25.1511628 C13.4964706,25.1511628 13.9835294,24.5023256 13.9835294,24.5023256" id="_Path_3" stroke="#45413C" stroke-width="0.689338235" stroke-linecap="round" stroke-linejoin="round"></path>
                    <path d="M22.8564706,10.9255814 C22.8564706,10.3395349 22.8564706,9.68372093 22.8564706,8.94418605 C22.8847059,4.11627907 18.2258824,0.453488372 12,0.453488372 C5.77411765,0.453488372 1.11529412,4.11627907 1.11529412,8.94418605 C1.11529412,15.1674419 1.70117647,16.0674419 1.70117647,16.0674419 C5.10823061,14.4999679 8.6521754,13.241318 12.2894118,12.3069767 C15.7760223,13.1186066 19.1408039,14.3756953 22.2988235,16.0465116 C22.2988235,16.0465116 22.7505882,15.3488372 22.8564706,10.9255814 Z" id="_Path_4" fill="#F0F0F0" fill-rule="nonzero"></path>
                    <path d="M12,3.30697674 C17.9435294,3.30697674 22.4541176,6.64186047 22.8565982,11.1488372 L22.8564706,10.9255814 C22.8564706,10.3395349 22.8564706,9.68372093 22.8564706,8.94418605 C22.8847059,4.11627907 18.2258824,0.453488372 12,0.453488372 C5.77411765,0.453488372 1.11529412,4.11627907 1.11529412,8.94418605 C1.11529412,9.7744186 1.11529412,10.5069767 1.11529412,11.1488372 C1.53882353,6.64883721 6.04941176,3.30697674 12,3.30697674 Z" id="Shape" fill="#FFFFFF" fill-rule="nonzero"></path>
                    <path d="M22.8564706,10.9255814 C22.8564706,10.3395349 22.8564706,9.68372093 22.8564706,8.94418605 C22.8847059,4.11627907 18.2258824,0.453488372 12,0.453488372 C5.77411765,0.453488372 1.11529412,4.11627907 1.11529412,8.94418605 C1.11529412,15.1674419 1.70117647,16.0674419 1.70117647,16.0674419 C5.10823061,14.4999679 8.6521754,13.241318 12.2894118,12.3069767 C15.7760223,13.1186066 19.1408039,14.3756953 22.2988235,16.0465116 C22.2988235,16.0465116 22.7505882,15.3488372 22.8564706,10.9255814 Z" id="_Path_5" stroke="#45413C" stroke-width="0.689338235" stroke-linecap="round" stroke-linejoin="round"></path>
                    <path d="M1.11529412,8.94418605 C1.11529412,8.94418605 5.18823529,1.60465116 16.8917647,1.26976744" id="_Path_6" stroke="#45413C" stroke-width="0.689338235" stroke-linecap="round" stroke-linejoin="round"></path>
                    <path d="M20.0329412,7.6255814 C14.5007901,7.75109105 9.10487575,9.34646354 4.41176471,12.244186" id="_Path_7" stroke="#45413C" stroke-width="0.689338235" stroke-linecap="round" stroke-linejoin="round"></path>
                    <path d="M12.2823529,12.3069767 C19.6941176,10.555814 22.8705882,10.9116279 22.8705882,10.9116279" id="Shape" stroke="#45413C" stroke-width="0.689338235" stroke-linecap="round" stroke-linejoin="round"></path>
                </g>
            </g>
        </g>
    </g>
</svg>