<?xml version="1.0" encoding="UTF-8"?>
<svg width="26px" height="29px" viewBox="0 0 26 29" version="1.1" xmlns="http://www.w3.org/2000/svg" xmlns:xlink="http://www.w3.org/1999/xlink">
    <!-- Generator: sketchtool 50.2 (55047) - http://www.bohemiancoding.com/sketch -->
    <title>033CAEE6-0672-4E40-B906-0DB165CCE311</title>
    <desc>Created with sketchtool.</desc>
    <defs></defs>
    <g id="Page-1" stroke="none" stroke-width="1" fill="none" fill-rule="evenodd">
        <g id="Test" transform="translate(-1181.000000, -625.000000)">
            <g id="Files" transform="translate(1010.000000, 591.000000)">
                <g id="ic_nail" transform="translate(172.000000, 34.000000)">
                    <path d="M12.1944444,14.2390244 C12.5444069,14.9950943 12.5741532,15.8570156 12.2771223,16.6346797 C11.9800915,17.4123439 11.3806854,18.0418638 10.6111111,18.3843902 L0,23.1307317 L0,18.6917073 C0.000569296355,18.4233858 0.160861775,18.1802554 0.409722222,18.0702439 L10.4166667,13.5834146 C10.7404811,13.4359905 11.1108728,13.422361 11.4449847,13.545575 C11.7790967,13.668789 12.0490459,13.9185637 12.1944444,14.2390244 Z" id="_Path_" stroke="#45413C" stroke-width="0.694444444" fill="#FFCEBF" fill-rule="nonzero" stroke-linecap="round" stroke-linejoin="round"></path>
                    <path d="M8.625,16.8341463 C8.49894163,16.8919496 8.35461007,16.8977672 8.22416437,16.8503027 C8.09371867,16.8028383 7.98799698,16.7060356 7.93055556,16.5814634 L7.23611111,15.0243902 L12.4722222,12.6819512 C12.8212592,12.5280849 13.2311024,12.6807537 13.3888889,13.0234146 C13.566749,13.3959017 13.584507,13.8231495 13.4381524,14.2086688 C13.2917979,14.5941881 12.9936748,14.9054629 12.6111111,15.0721951 L8.625,16.8341463 Z" id="Shape" fill="#FF6196" fill-rule="nonzero"></path>
                    <path d="M12.4513889,13.7473171 C12.7985498,13.5925662 13.2076632,13.7419152 13.3680556,14.0819512 C13.3871523,14.1170619 13.4034063,14.1535978 13.4166667,14.1912195 C13.5567612,13.810736 13.5393044,13.3913645 13.3680556,13.0234146 C13.210269,12.6807537 12.8004259,12.5280849 12.4513889,12.6819512 L7.21527778,15.0243902 L7.63888889,15.9053659 L12.4513889,13.7473171 Z" id="Shape" fill="#FF87AF" fill-rule="nonzero"></path>
                    <path d="M8.625,16.8341463 C8.49894163,16.8919496 8.35461007,16.8977672 8.22416437,16.8503027 C8.09371867,16.8028383 7.98799698,16.7060356 7.93055556,16.5814634 L7.23611111,15.0243902 L12.4722222,12.6819512 C12.8212592,12.5280849 13.2311024,12.6807537 13.3888889,13.0234146 C13.566749,13.3959017 13.584507,13.8231495 13.4381524,14.2086688 C13.2917979,14.5941881 12.9936748,14.9054629 12.6111111,15.0721951 L8.625,16.8341463 Z" id="Shape" stroke="#45413C" stroke-width="0.694444444" stroke-linecap="round" stroke-linejoin="round"></path>
                    <path d="M0,25.5687805 L13.0625,19.7229268 C14.660971,19.0094045 15.3719358,17.1591907 14.6527778,15.5843902 C14.511043,15.2620514 14.2443621,15.0086654 13.9119052,14.8804525 C13.5794484,14.7522396 13.2087087,14.7598026 12.8819444,14.9014634 L0,20.6926829 L0,25.5687805 Z" id="Shape" fill="#FFCEBF" fill-rule="nonzero"></path>
                    <path d="M14.8680556,16.2468293 C14.6106407,17.1286879 13.9700957,17.8535975 13.1180556,18.2273171 L0,24.0936585 L0,25.5687805 L13.0625,19.7229268 C14.415902,19.1210016 15.1654291,17.6779946 14.8680556,16.2468293 Z" id="Shape" fill="#FFB59E" fill-rule="nonzero"></path>
                    <path d="M0,25.5687805 L13.0625,19.7229268 C14.660971,19.0094045 15.3719358,17.1591907 14.6527778,15.5843902 C14.511043,15.2620514 14.2443621,15.0086654 13.9119052,14.8804525 C13.5794484,14.7522396 13.2087087,14.7598026 12.8819444,14.9014634 L0,20.6926829 L0,25.5687805 Z" id="Shape" stroke="#45413C" stroke-width="0.694444444" stroke-linecap="round" stroke-linejoin="round"></path>
                    <path d="M11.1111111,18.1795122 C10.8483025,18.2958903 10.5391559,18.1834031 10.4166667,17.9268293 L9.72222222,16.3697561 L14.9583333,14.0273171 C15.3054942,13.8725662 15.7146076,14.0219152 15.875,14.3619512 C16.0508942,14.7347027 16.067637,15.1612088 15.9214881,15.5461864 C15.7753392,15.931164 15.4784772,16.2425328 15.0972222,16.4107317 L11.1111111,18.1795122 Z" id="Shape" fill="#FF6196" fill-rule="nonzero"></path>
                    <path d="M14.9027778,15.0858537 C15.2936881,14.9522551 15.7216892,15.1490801 15.8680556,15.5297561 C16.0139093,15.143175 15.9964046,14.7152731 15.8194444,14.3414634 C15.659052,14.0014274 15.2499387,13.8520784 14.9027778,14.0068293 L9.66666667,16.3902439 L10.0694444,17.2712195 L14.9027778,15.0858537 Z" id="Shape" fill="#FF87AF" fill-rule="nonzero"></path>
                    <path d="M11.1111111,18.1795122 C10.8483025,18.2958903 10.5391559,18.1834031 10.4166667,17.9268293 L9.72222222,16.3697561 L14.9583333,14.0273171 C15.3054942,13.8725662 15.7146076,14.0219152 15.875,14.3619512 C16.0508942,14.7347027 16.067637,15.1612088 15.9214881,15.5461864 C15.7753392,15.931164 15.4784772,16.2425328 15.0972222,16.4107317 L11.1111111,18.1795122 Z" id="Shape" stroke="#45413C" stroke-width="0.694444444" stroke-linecap="round" stroke-linejoin="round"></path>
                    <path d="M0,27.0643902 C0.000868670949,27.281385 0.106549571,27.4850593 0.284705321,27.6130908 C0.46286107,27.7411223 0.692285843,27.7782713 0.902777778,27.7131707 L13.0763889,23.9980488 C14.7461223,23.4780634 15.6764446,21.7306187 15.1597222,20.084878 C14.9399217,19.3918563 14.1916652,19.0040866 13.4861111,19.217561 L0,23.342439 L0,27.0643902 Z" id="Shape" fill="#FFCEBF" fill-rule="nonzero"></path>
                    <path d="M13.3333333,22.5365854 L0,26.5931707 L0,27.0643902 C0.000868670949,27.281385 0.106549571,27.4850593 0.284705321,27.6130908 C0.46286107,27.7411223 0.692285843,27.7782713 0.902777778,27.7131707 L13.0763889,23.9980488 C14.4982264,23.5711424 15.4296802,22.2325835 15.3194444,20.7746341 C14.9521366,21.6199261 14.2260502,22.2640638 13.3333333,22.5365854 Z" id="Shape" fill="#FFB59E" fill-rule="nonzero"></path>
                    <path d="M0,27.0643902 C0.000868670949,27.281385 0.106549571,27.4850593 0.284705321,27.6130908 C0.46286107,27.7411223 0.692285843,27.7782713 0.902777778,27.7131707 L13.0763889,23.9980488 C14.7461223,23.4780634 15.6764446,21.7306187 15.1597222,20.084878 C14.9399217,19.3918563 14.1916652,19.0040866 13.4861111,19.217561 L0,23.342439 L0,27.0643902 Z" id="Shape" stroke="#45413C" stroke-width="0.694444444" stroke-linecap="round" stroke-linejoin="round"></path>
                    <path d="M11.3055556,22.222439 C11.0296997,22.302565 10.7393988,22.1507107 10.6527778,21.8809756 L10.1388889,20.2487805 L15.6319444,18.5756098 C15.8087473,18.5201662 16.0007604,18.5366195 16.1651479,18.6212992 C16.3295355,18.7059788 16.4526206,18.8518395 16.5069444,19.0263415 C16.7600457,19.8389626 16.2974831,20.699897 15.4722222,20.9521951 L11.3055556,22.222439 Z" id="Shape" fill="#FF6196" fill-rule="nonzero"></path>
                    <path d="M15.5,19.6273171 C15.8662538,19.5162449 16.2547622,19.7179751 16.3680556,20.0780488 C16.3712134,20.1144054 16.3712134,20.1509605 16.3680556,20.1873171 C16.5610009,19.8303688 16.6010003,19.4124246 16.4791667,19.0263415 C16.4248428,18.8518395 16.3017577,18.7059788 16.1373702,18.6212992 C15.9729826,18.5366195 15.7809696,18.5201662 15.6041667,18.5756098 L10.1388889,20.2487805 L10.4166667,21.1707317 L15.5,19.6273171 Z" id="Shape" fill="#FF87AF" fill-rule="nonzero"></path>
                    <path d="M11.3055556,22.222439 C11.0296997,22.302565 10.7393988,22.1507107 10.6527778,21.8809756 L10.1388889,20.2487805 L15.6319444,18.5756098 C15.8087473,18.5201662 16.0007604,18.5366195 16.1651479,18.6212992 C16.3295355,18.7059788 16.4526206,18.8518395 16.5069444,19.0263415 C16.7600457,19.8389626 16.2974831,20.699897 15.4722222,20.9521951 L11.3055556,22.222439 Z" id="Shape" stroke="#45413C" stroke-width="0.694444444" stroke-linecap="round" stroke-linejoin="round"></path>
                    <path d="M20.7375701,1.17868577 L21.8695146,1.17868577 C22.6365767,1.17868577 23.2584035,1.79019928 23.2584035,2.54453943 L23.2584035,6.56014919 C23.2584035,6.74873422 23.1029468,6.9016126 22.9111813,6.9016126 L19.6959035,6.9016126 C19.5041379,6.9016126 19.3486813,6.74873422 19.3486813,6.56014919 L19.3486813,2.54453943 C19.3486813,1.79019928 19.970508,1.17868577 20.7375701,1.17868577 Z" id="_Rectangle_" fill="#FF6196" fill-rule="nonzero" transform="translate(21.303542, 4.040149) rotate(25.740000) translate(-21.303542, -4.040149) "></path>
                    <path d="M18.5902778,5.93463415 L18.9930556,6.12585366 L20.2013889,3.65365854 C20.5352748,2.97498852 21.3651812,2.69071433 22.0555556,3.01853659 L23.0763889,3.50341463 C23.2600465,3.59282441 23.4213091,3.72109416 23.5486111,3.87902439 L23.7222222,3.53073171 C24.0555732,2.85180742 23.7665047,2.0356654 23.0763889,1.70731707 L22.0555556,1.22926829 C21.3651812,0.901446038 20.5352748,1.18572023 20.2013889,1.86439024 L18.4305556,5.46341463 C18.3853461,5.54623586 18.3768541,5.64372207 18.4070808,5.73289839 C18.4373076,5.8220747 18.5035794,5.89505296 18.5902778,5.93463415 Z" id="_Path_2" fill="#FF87AF" fill-rule="nonzero"></path>
                    <path d="M20.7375701,1.17868577 L21.8695146,1.17868577 C22.6365767,1.17868577 23.2584035,1.79019928 23.2584035,2.54453943 L23.2584035,6.56014919 C23.2584035,6.74873422 23.1029468,6.9016126 22.9111813,6.9016126 L19.6959035,6.9016126 C19.5041379,6.9016126 19.3486813,6.74873422 19.3486813,6.56014919 L19.3486813,2.54453943 C19.3486813,1.79019928 19.970508,1.17868577 20.7375701,1.17868577 Z" id="_Rectangle_2" stroke="#45413C" stroke-width="0.694444444" stroke-linecap="round" stroke-linejoin="round" transform="translate(21.303542, 4.040149) rotate(25.740000) translate(-21.303542, -4.040149) "></path>
                    <rect id="_Rectangle_3" stroke="#45413C" stroke-width="0.694444444" fill="#F0F0F0" fill-rule="nonzero" stroke-linecap="round" stroke-linejoin="round" transform="translate(18.722356, 9.309675) rotate(25.740000) translate(-18.722356, -9.309675) " x="18.0695785" y="6.32187035" width="1.30555556" height="5.97560976"></rect>
                    <path d="M18.0555556,12.6546341 C17.6111111,13.644878 16.5416667,14.7034146 14.3402778,14.2390244 C15.1475011,13.5702466 15.7787794,12.7198564 16.1805556,11.76 C16.3430618,11.4306186 16.6719102,11.2115157 17.0432268,11.1852254 C17.4145435,11.158935 17.7719164,11.3294513 17.9807268,11.6325424 C18.1895372,11.9356335 18.2180618,12.3252527 18.0555556,12.6546341 Z" id="_Path_3" fill="#FF6196" fill-rule="nonzero"></path>
                    <path d="M15.2777778,13.3307317 C15.0156428,13.6730792 14.7072441,13.9786606 14.3611111,14.2390244 C16.5625,14.6965854 17.6319444,13.644878 18.0763889,12.6546341 C18.2233479,12.3529589 18.2156131,12.0005248 18.0555556,11.7053659 C17.5702847,12.7685426 16.4594329,13.4185372 15.2777778,13.3307317 Z" id="_Path_4" fill="#E0366F" fill-rule="nonzero"></path>
                    <path d="M18.0555556,12.6546341 C17.6111111,13.644878 16.5416667,14.7034146 14.3402778,14.2390244 C15.1475011,13.5702466 15.7787794,12.7198564 16.1805556,11.76 C16.3430618,11.4306186 16.6719102,11.2115157 17.0432268,11.1852254 C17.4145435,11.158935 17.7719164,11.3294513 17.9807268,11.6325424 C18.1895372,11.9356335 18.2180618,12.3252527 18.0555556,12.6546341 Z" id="_Path_5" stroke="#45413C" stroke-width="0.694444444" stroke-linecap="round" stroke-linejoin="round"></path>
                </g>
            </g>
        </g>
    </g>
</svg>